<?xml version="1.0" encoding="UTF-8" standalone="no"?>
<!DOCTYPE svg PUBLIC "-//W3C//DTD SVG 1.1//EN"
 "http://www.w3.org/Graphics/SVG/1.1/DTD/svg11.dtd">
<!-- Generated by graphviz version 2.38.0 (20140413.2041)
 -->
<!-- Title: models_diagram Pages: 1 -->
<svg width="630pt" height="498pt"
 viewBox="0.00 0.00 629.97 498.00" xmlns="http://www.w3.org/2000/svg" xmlns:xlink="http://www.w3.org/1999/xlink">
<g id="graph0" class="graph" transform="scale(1 1) rotate(0) translate(4 494)">
<title>models_diagram</title>
<polygon fill="none" stroke="none" points="-4,4 -4,-494 625.966,-494 625.966,4 -4,4"/>
<!-- _diagram_info -->
<g id="node1" class="node"><title>_diagram_info</title>
<text text-anchor="start" x="8" y="-405.6" font-family="Times,serif" font-size="13.00">Models diagram</text>
<text text-anchor="start" x="8" y="-392.6" font-family="Times,serif" font-size="13.00">Date: Aug 16 2015 &#45; 23:06</text>
<text text-anchor="start" x="8" y="-379.6" font-family="Times,serif" font-size="13.00">Migration version: 20150817054744</text>
<text text-anchor="start" x="8" y="-366.6" font-family="Times,serif" font-size="13.00">Generated by RailRoady 1.3.1</text>
<text text-anchor="start" x="8" y="-353.6" font-family="Times,serif" font-size="13.00">http://railroady.prestonlee.com</text>
</g>
<!-- Challenge -->
<g id="node2" class="node"><title>Challenge</title>
<path fill="none" stroke="black" d="M237.351,-0.5C237.351,-0.5 386.024,-0.5 386.024,-0.5 392.024,-0.5 398.024,-6.5 398.024,-12.5 398.024,-12.5 398.024,-214.5 398.024,-214.5 398.024,-220.5 392.024,-226.5 386.024,-226.5 386.024,-226.5 237.351,-226.5 237.351,-226.5 231.351,-226.5 225.351,-220.5 225.351,-214.5 225.351,-214.5 225.351,-12.5 225.351,-12.5 225.351,-6.5 231.351,-0.5 237.351,-0.5"/>
<text text-anchor="middle" x="311.688" y="-211.3" font-family="Times,serif" font-size="14.00">Challenge</text>
<polyline fill="none" stroke="black" points="225.351,-204.5 398.024,-204.5 "/>
<text text-anchor="start" x="233.351" y="-189.3" font-family="Times,serif" font-size="14.00">id :integer</text>
<text text-anchor="start" x="233.351" y="-175.3" font-family="Times,serif" font-size="14.00">title :string</text>
<text text-anchor="start" x="233.351" y="-161.3" font-family="Times,serif" font-size="14.00">challenge_description :text</text>
<text text-anchor="start" x="233.351" y="-147.3" font-family="Times,serif" font-size="14.00">forfeit_description :text</text>
<text text-anchor="start" x="233.351" y="-133.3" font-family="Times,serif" font-size="14.00">forfeit_completed :boolean</text>
<text text-anchor="start" x="233.351" y="-119.3" font-family="Times,serif" font-size="14.00">number_of_times :integer</text>
<text text-anchor="start" x="233.351" y="-105.3" font-family="Times,serif" font-size="14.00">number_of_days :integer</text>
<text text-anchor="start" x="233.351" y="-91.3" font-family="Times,serif" font-size="14.00">start_date :date</text>
<text text-anchor="start" x="233.351" y="-77.3" font-family="Times,serif" font-size="14.00">end_date :date</text>
<text text-anchor="start" x="233.351" y="-63.3" font-family="Times,serif" font-size="14.00">user_id :integer</text>
<text text-anchor="start" x="233.351" y="-49.3" font-family="Times,serif" font-size="14.00">created_at :datetime</text>
<text text-anchor="start" x="233.351" y="-35.3" font-family="Times,serif" font-size="14.00">updated_at :datetime</text>
<text text-anchor="start" x="233.351" y="-21.3" font-family="Times,serif" font-size="14.00">challenge_photo_id :integer</text>
<text text-anchor="start" x="233.351" y="-7.3" font-family="Times,serif" font-size="14.00">forfeit_photo_id :integer</text>
</g>
<!-- Photo -->
<g id="node3" class="node"><title>Photo</title>
<path fill="none" stroke="black" d="M237.579,-319.5C237.579,-319.5 387.797,-319.5 387.797,-319.5 393.797,-319.5 399.797,-325.5 399.797,-331.5 399.797,-331.5 399.797,-435.5 399.797,-435.5 399.797,-441.5 393.797,-447.5 387.797,-447.5 387.797,-447.5 237.579,-447.5 237.579,-447.5 231.579,-447.5 225.579,-441.5 225.579,-435.5 225.579,-435.5 225.579,-331.5 225.579,-331.5 225.579,-325.5 231.579,-319.5 237.579,-319.5"/>
<text text-anchor="middle" x="312.688" y="-432.3" font-family="Times,serif" font-size="14.00">Photo</text>
<polyline fill="none" stroke="black" points="225.579,-425.5 399.797,-425.5 "/>
<text text-anchor="start" x="233.579" y="-410.3" font-family="Times,serif" font-size="14.00">id :integer</text>
<text text-anchor="start" x="233.579" y="-396.3" font-family="Times,serif" font-size="14.00">created_at :datetime</text>
<text text-anchor="start" x="233.579" y="-382.3" font-family="Times,serif" font-size="14.00">updated_at :datetime</text>
<text text-anchor="start" x="233.579" y="-368.3" font-family="Times,serif" font-size="14.00">image_file_name :string</text>
<text text-anchor="start" x="233.579" y="-354.3" font-family="Times,serif" font-size="14.00">image_content_type :string</text>
<text text-anchor="start" x="233.579" y="-340.3" font-family="Times,serif" font-size="14.00">image_file_size :integer</text>
<text text-anchor="start" x="233.579" y="-326.3" font-family="Times,serif" font-size="14.00">image_updated_at :datetime</text>
</g>
<!-- Photo&#45;&gt;Challenge -->
<g id="edge1" class="edge"><title>Photo&#45;&gt;Challenge</title>
<path fill="none" stroke="#f2b7d9" d="M310.658,-311.082C310.255,-294.019 309.893,-275.863 309.688,-259 309.599,-251.674 309.556,-244.139 309.55,-236.537"/>
<ellipse fill="none" stroke="#f2b7d9" cx="310.762" cy="-315.362" rx="4" ry="4"/>
<polygon fill="#f2b7d9" stroke="#f2b7d9" points="309.55,-236.519 314.063,-226.525 309.557,-231.519 309.563,-226.519 309.563,-226.519 309.563,-226.519 309.557,-231.519 305.063,-226.513 309.55,-236.519 309.55,-236.519"/>
</g>
<!-- Photo&#45;&gt;Challenge -->
<g id="edge2" class="edge"><title>Photo&#45;&gt;Challenge</title>
<path fill="none" stroke="#bfb043" d="M312.421,-311.056C312.336,-288.164 312.239,-262.132 312.144,-236.673"/>
<ellipse fill="none" stroke="#bfb043" cx="312.437" cy="-315.327" rx="4" ry="4"/>
<polygon fill="#bfb043" stroke="#bfb043" points="312.143,-236.574 316.606,-226.557 312.125,-231.574 312.106,-226.574 312.106,-226.574 312.106,-226.574 312.125,-231.574 307.606,-226.591 312.143,-236.574 312.143,-236.574"/>
<text text-anchor="middle" x="331.902" y="-247.8" font-family="Times,serif" font-size="14.00">forfeits</text>
</g>
<!-- User -->
<g id="node4" class="node"><title>User</title>
<path fill="none" stroke="black" d="M429.41,-277.5C429.41,-277.5 609.966,-277.5 609.966,-277.5 615.966,-277.5 621.966,-283.5 621.966,-289.5 621.966,-289.5 621.966,-477.5 621.966,-477.5 621.966,-483.5 615.966,-489.5 609.966,-489.5 609.966,-489.5 429.41,-489.5 429.41,-489.5 423.41,-489.5 417.41,-483.5 417.41,-477.5 417.41,-477.5 417.41,-289.5 417.41,-289.5 417.41,-283.5 423.41,-277.5 429.41,-277.5"/>
<text text-anchor="middle" x="519.688" y="-474.3" font-family="Times,serif" font-size="14.00">User</text>
<polyline fill="none" stroke="black" points="417.41,-467.5 621.966,-467.5 "/>
<text text-anchor="start" x="425.41" y="-452.3" font-family="Times,serif" font-size="14.00">id :integer</text>
<text text-anchor="start" x="425.41" y="-438.3" font-family="Times,serif" font-size="14.00">email :string</text>
<text text-anchor="start" x="425.41" y="-424.3" font-family="Times,serif" font-size="14.00">encrypted_password :string</text>
<text text-anchor="start" x="425.41" y="-410.3" font-family="Times,serif" font-size="14.00">reset_password_token :string</text>
<text text-anchor="start" x="425.41" y="-396.3" font-family="Times,serif" font-size="14.00">reset_password_sent_at :datetime</text>
<text text-anchor="start" x="425.41" y="-382.3" font-family="Times,serif" font-size="14.00">remember_created_at :datetime</text>
<text text-anchor="start" x="425.41" y="-368.3" font-family="Times,serif" font-size="14.00">sign_in_count :integer</text>
<text text-anchor="start" x="425.41" y="-354.3" font-family="Times,serif" font-size="14.00">current_sign_in_at :datetime</text>
<text text-anchor="start" x="425.41" y="-340.3" font-family="Times,serif" font-size="14.00">last_sign_in_at :datetime</text>
<text text-anchor="start" x="425.41" y="-326.3" font-family="Times,serif" font-size="14.00">current_sign_in_ip :inet</text>
<text text-anchor="start" x="425.41" y="-312.3" font-family="Times,serif" font-size="14.00">last_sign_in_ip :inet</text>
<text text-anchor="start" x="425.41" y="-298.3" font-family="Times,serif" font-size="14.00">created_at :datetime</text>
<text text-anchor="start" x="425.41" y="-284.3" font-family="Times,serif" font-size="14.00">updated_at :datetime</text>
</g>
</g>
</svg>
