<?xml version="1.0" encoding="UTF-8" standalone="no"?>
<!DOCTYPE svg PUBLIC "-//W3C//DTD SVG 1.1//EN"
 "http://www.w3.org/Graphics/SVG/1.1/DTD/svg11.dtd">
<!-- Generated by graphviz version 2.38.0 (20140413.2041)
 -->
<!-- Title: models_diagram Pages: 1 -->
<svg width="438pt" height="221pt"
 viewBox="0.00 0.00 437.97 221.00" xmlns="http://www.w3.org/2000/svg" xmlns:xlink="http://www.w3.org/1999/xlink">
<g id="graph0" class="graph" transform="scale(1 1) rotate(0) translate(4 217)">
<title>models_diagram</title>
<polygon fill="none" stroke="none" points="-4,4 -4,-217 433.966,-217 433.966,4 -4,4"/>
<!-- _diagram_info -->
<g id="node1" class="node"><title>_diagram_info</title>
<text text-anchor="start" x="8" y="-128.6" font-family="Times,serif" font-size="13.00">Models diagram</text>
<text text-anchor="start" x="8" y="-115.6" font-family="Times,serif" font-size="13.00">Date: Aug 16 2015 &#45; 10:59</text>
<text text-anchor="start" x="8" y="-102.6" font-family="Times,serif" font-size="13.00">Migration version: 20150816175245</text>
<text text-anchor="start" x="8" y="-89.6" font-family="Times,serif" font-size="13.00">Generated by RailRoady 1.3.1</text>
<text text-anchor="start" x="8" y="-76.6" font-family="Times,serif" font-size="13.00">http://railroady.prestonlee.com</text>
</g>
<!-- User -->
<g id="node2" class="node"><title>User</title>
<path fill="none" stroke="black" d="M237.41,-0.5C237.41,-0.5 417.966,-0.5 417.966,-0.5 423.966,-0.5 429.966,-6.5 429.966,-12.5 429.966,-12.5 429.966,-200.5 429.966,-200.5 429.966,-206.5 423.966,-212.5 417.966,-212.5 417.966,-212.5 237.41,-212.5 237.41,-212.5 231.41,-212.5 225.41,-206.5 225.41,-200.5 225.41,-200.5 225.41,-12.5 225.41,-12.5 225.41,-6.5 231.41,-0.5 237.41,-0.5"/>
<text text-anchor="middle" x="327.688" y="-197.3" font-family="Times,serif" font-size="14.00">User</text>
<polyline fill="none" stroke="black" points="225.41,-190.5 429.966,-190.5 "/>
<text text-anchor="start" x="233.41" y="-175.3" font-family="Times,serif" font-size="14.00">id :integer</text>
<text text-anchor="start" x="233.41" y="-161.3" font-family="Times,serif" font-size="14.00">email :string</text>
<text text-anchor="start" x="233.41" y="-147.3" font-family="Times,serif" font-size="14.00">encrypted_password :string</text>
<text text-anchor="start" x="233.41" y="-133.3" font-family="Times,serif" font-size="14.00">reset_password_token :string</text>
<text text-anchor="start" x="233.41" y="-119.3" font-family="Times,serif" font-size="14.00">reset_password_sent_at :datetime</text>
<text text-anchor="start" x="233.41" y="-105.3" font-family="Times,serif" font-size="14.00">remember_created_at :datetime</text>
<text text-anchor="start" x="233.41" y="-91.3" font-family="Times,serif" font-size="14.00">sign_in_count :integer</text>
<text text-anchor="start" x="233.41" y="-77.3" font-family="Times,serif" font-size="14.00">current_sign_in_at :datetime</text>
<text text-anchor="start" x="233.41" y="-63.3" font-family="Times,serif" font-size="14.00">last_sign_in_at :datetime</text>
<text text-anchor="start" x="233.41" y="-49.3" font-family="Times,serif" font-size="14.00">current_sign_in_ip :inet</text>
<text text-anchor="start" x="233.41" y="-35.3" font-family="Times,serif" font-size="14.00">last_sign_in_ip :inet</text>
<text text-anchor="start" x="233.41" y="-21.3" font-family="Times,serif" font-size="14.00">created_at :datetime</text>
<text text-anchor="start" x="233.41" y="-7.3" font-family="Times,serif" font-size="14.00">updated_at :datetime</text>
</g>
</g>
</svg>
