<?xml version="1.0" encoding="UTF-8" standalone="no"?>
<!DOCTYPE svg PUBLIC "-//W3C//DTD SVG 1.1//EN"
 "http://www.w3.org/Graphics/SVG/1.1/DTD/svg11.dtd">
<!-- Generated by graphviz version 2.38.0 (20140413.2041)
 -->
<!-- Title: models_diagram Pages: 1 -->
<svg width="367pt" height="167pt"
 viewBox="0.00 0.00 366.69 167.00" xmlns="http://www.w3.org/2000/svg" xmlns:xlink="http://www.w3.org/1999/xlink">
<g id="graph0" class="graph" transform="scale(1 1) rotate(0) translate(4 163)">
<title>models_diagram</title>
<polygon fill="none" stroke="none" points="-4,4 -4,-163 362.688,-163 362.688,4 -4,4"/>
<!-- _diagram_info -->
<g id="node1" class="node"><title>_diagram_info</title>
<text text-anchor="start" x="8" y="-144.6" font-family="Times,serif" font-size="13.00">Models diagram</text>
<text text-anchor="start" x="8" y="-131.6" font-family="Times,serif" font-size="13.00">Date: Aug 16 2015 &#45; 23:06</text>
<text text-anchor="start" x="8" y="-118.6" font-family="Times,serif" font-size="13.00">Migration version: 20150817054744</text>
<text text-anchor="start" x="8" y="-105.6" font-family="Times,serif" font-size="13.00">Generated by RailRoady 1.3.1</text>
<text text-anchor="start" x="8" y="-92.6" font-family="Times,serif" font-size="13.00">http://railroady.prestonlee.com</text>
</g>
<!-- Challenge -->
<g id="node2" class="node"><title>Challenge</title>
<ellipse fill="none" stroke="black" cx="254.688" cy="-18" rx="45.92" ry="18"/>
<text text-anchor="middle" x="254.688" y="-13.8" font-family="Times,serif" font-size="14.00">Challenge</text>
</g>
<!-- Photo -->
<g id="node3" class="node"><title>Photo</title>
<ellipse fill="none" stroke="black" cx="255.688" cy="-122.5" rx="30.9967" ry="18"/>
<text text-anchor="middle" x="255.688" y="-118.3" font-family="Times,serif" font-size="14.00">Photo</text>
</g>
<!-- Photo&#45;&gt;Challenge -->
<g id="edge1" class="edge"><title>Photo&#45;&gt;Challenge</title>
<path fill="none" stroke="#66bae1" d="M253.68,-96.0649C252.906,-83.4218 252.291,-67.9094 252.688,-54 252.761,-51.4448 252.864,-48.7859 252.985,-46.1262"/>
<ellipse fill="none" stroke="#66bae1" cx="253.964" cy="-100.313" rx="4" ry="4"/>
<polygon fill="#66bae1" stroke="#66bae1" points="252.988,-46.0675 258.01,-36.3193 253.252,-41.0745 253.516,-36.0815 253.516,-36.0815 253.516,-36.0815 253.252,-41.0745 249.022,-35.8437 252.988,-46.0675 252.988,-46.0675"/>
</g>
<!-- Photo&#45;&gt;Challenge -->
<g id="edge2" class="edge"><title>Photo&#45;&gt;Challenge</title>
<path fill="none" stroke="#27105b" d="M255.439,-96.0171C255.291,-80.8405 255.103,-61.5891 254.952,-46.1305"/>
<ellipse fill="none" stroke="#27105b" cx="255.479" cy="-100.112" rx="4" ry="4"/>
<polygon fill="#27105b" stroke="#27105b" points="254.953,-46.1305 259.355,-36.087 254.904,-41.1307 254.855,-36.1309 254.855,-36.1309 254.855,-36.1309 254.904,-41.1307 250.355,-36.1749 254.953,-46.1305 254.953,-46.1305"/>
<text text-anchor="middle" x="274.902" y="-56.8" font-family="Times,serif" font-size="14.00">forfeits</text>
</g>
<!-- User -->
<g id="node4" class="node"><title>User</title>
<ellipse fill="none" stroke="black" cx="331.688" cy="-122.5" rx="27" ry="18"/>
<text text-anchor="middle" x="331.688" y="-118.3" font-family="Times,serif" font-size="14.00">User</text>
</g>
</g>
</svg>
